<svg width="27" height="27" viewBox="0 0 27 27" fill="none" xmlns="http://www.w3.org/2000/svg">
<path d="M8.75195 14.1788L11.4649 16.8917L18.2472 10.1094" stroke="white" stroke-width="1.5" stroke-linecap="round" stroke-linejoin="round"/>
<path d="M1.33179 14.963C1.11337 14.5062 1 14.0063 1 13.5C1 12.9937 1.11337 12.4938 1.33179 12.037C1.5217 11.6382 1.84725 11.2557 2.49835 10.4907C2.7588 10.1855 2.88902 10.0335 2.99753 9.87077C3.2472 9.4984 3.42055 9.08023 3.50757 8.64045C3.54555 8.44783 3.56183 8.24843 3.59302 7.84963C3.67306 6.84855 3.71239 6.34801 3.86025 5.92887C4.02911 5.45164 4.30266 5.01826 4.66085 4.66055C5.01904 4.30283 5.45277 4.02984 5.93022 3.86161C6.34801 3.71375 6.84855 3.67306 7.85098 3.59438C8.24978 3.56183 8.44783 3.54555 8.64045 3.50757C9.08071 3.42072 9.49935 3.24736 9.87212 2.99753C10.0349 2.88902 10.1868 2.76015 10.4907 2.49971C11.2557 1.8486 11.6382 1.52305 12.037 1.33179C12.4938 1.11337 12.9937 1 13.5 1C14.0063 1 14.5062 1.11337 14.963 1.33179C15.3631 1.5217 15.7456 1.84725 16.5093 2.49971C16.8145 2.76015 16.9665 2.88902 17.1292 2.99753C17.502 3.24736 17.9206 3.42072 18.3609 3.50757C18.5522 3.54555 18.7516 3.56183 19.1504 3.59438C20.1528 3.67306 20.6533 3.71375 21.0711 3.86161C21.5483 4.03001 21.9818 4.30307 22.3397 4.66078C22.6977 5.01849 22.971 5.45178 23.1398 5.92887M3.86025 21.0711C4.02897 21.5482 4.30232 21.9815 4.66026 22.3392C5.0182 22.6969 5.45167 22.97 5.92887 23.1384C6.34666 23.2876 6.8472 23.3269 7.84963 23.4056C8.24843 23.4382 8.44647 23.4544 8.63909 23.4924C9.07935 23.5793 9.498 23.7526 9.87077 24.0025C10.0335 24.111 10.1855 24.2398 10.4893 24.5003C11.2544 25.1514 11.6369 25.4769 12.0357 25.6682C12.4925 25.8866 12.9923 26 13.4986 26C14.0049 26 14.5048 25.8866 14.9616 25.6682C15.3618 25.4783 15.7443 25.1527 16.508 24.5003C16.7052 24.3229 16.9121 24.1567 17.1279 24.0025C17.5006 23.7526 17.9193 23.5793 18.3596 23.4924C18.5508 23.4544 18.7502 23.4382 19.149 23.4056C20.1514 23.3269 20.652 23.2862 21.0698 23.1384C21.547 22.97 21.9804 22.6969 22.3384 22.3392C22.6963 21.9815 22.9697 21.5482 23.1384 21.0711C23.2862 20.6533 23.3256 20.1514 23.4056 19.1504C23.4368 18.7516 23.4531 18.5522 23.4911 18.3596C23.5779 17.9201 23.7515 17.5009 24.0011 17.1292C24.1096 16.9665 24.2398 16.8145 24.4989 16.5093C25.15 15.7443 25.4769 15.3618 25.6682 14.963C25.8866 14.5062 26 14.0063 26 13.5C26 12.9937 25.8866 12.4938 25.6682 12.037" stroke="white" stroke-width="1.5" stroke-linecap="round"/>
</svg>
