<svg width="27" height="27" viewBox="0 0 27 27" fill="none" xmlns="http://www.w3.org/2000/svg">
<path d="M25.0384 12.5385H17.3461C16.815 12.5385 16.3845 12.9689 16.3845 13.5V25.0385C16.3845 25.5695 16.815 26 17.3461 26H25.0384C25.5694 26 25.9999 25.5695 25.9999 25.0385V13.5C25.9999 12.9689 25.5694 12.5385 25.0384 12.5385Z" stroke="#F8F8F8" stroke-linecap="round" stroke-linejoin="round"/>
<path d="M25.0384 1H17.3461C16.815 1 16.3845 1.4305 16.3845 1.96154V5.82692C16.3845 6.35797 16.815 6.78846 17.3461 6.78846H25.0384C25.5694 6.78846 25.9999 6.35797 25.9999 5.82692V1.96154C25.9999 1.4305 25.5694 1 25.0384 1Z" stroke="#F8F8F8" stroke-linecap="round" stroke-linejoin="round"/>
<path d="M9.65385 1H1.96154C1.4305 1 1 1.4305 1 1.96154V13.5C1 14.031 1.4305 14.4615 1.96154 14.4615H9.65385C10.1849 14.4615 10.6154 14.031 10.6154 13.5V1.96154C10.6154 1.4305 10.1849 1 9.65385 1Z" stroke="#F8F8F8" stroke-linecap="round" stroke-linejoin="round"/>
<path d="M9.65385 20.212H1.96154C1.4305 20.212 1 20.6425 1 21.1735V25.0389C1 25.5699 1.4305 26.0004 1.96154 26.0004H9.65385C10.1849 26.0004 10.6154 25.5699 10.6154 25.0389V21.1735C10.6154 20.6425 10.1849 20.212 9.65385 20.212Z" stroke="#F8F8F8" stroke-linecap="round" stroke-linejoin="round"/>
</svg>
