<svg width="20" height="20" viewBox="0 0 20 20" fill="none" xmlns="http://www.w3.org/2000/svg">
<path d="M10.0013 10.8337C10.4615 10.8337 10.8346 10.4606 10.8346 10.0003C10.8346 9.54009 10.4615 9.16699 10.0013 9.16699C9.54107 9.16699 9.16797 9.54009 9.16797 10.0003C9.16797 10.4606 9.54107 10.8337 10.0013 10.8337Z" stroke="#EEEEEE" stroke-width="1.99832" stroke-linecap="round" stroke-linejoin="round"/>
<path d="M15.8333 10.8337C16.2936 10.8337 16.6667 10.4606 16.6667 10.0003C16.6667 9.54009 16.2936 9.16699 15.8333 9.16699C15.3731 9.16699 15 9.54009 15 10.0003C15 10.4606 15.3731 10.8337 15.8333 10.8337Z" stroke="#EEEEEE" stroke-width="1.99832" stroke-linecap="round" stroke-linejoin="round"/>
<path d="M4.16536 10.8337C4.6256 10.8337 4.9987 10.4606 4.9987 10.0003C4.9987 9.54009 4.6256 9.16699 4.16536 9.16699C3.70513 9.16699 3.33203 9.54009 3.33203 10.0003C3.33203 10.4606 3.70513 10.8337 4.16536 10.8337Z" stroke="#EEEEEE" stroke-width="1.99832" stroke-linecap="round" stroke-linejoin="round"/>
</svg>
