<svg width="43" height="42" viewBox="0 0 43 42" fill="none" xmlns="http://www.w3.org/2000/svg">
<path d="M21.4707 41.9082C18.248 41.9082 15.2988 41.3711 12.623 40.2969C9.94727 39.2227 7.73047 37.7676 5.97266 35.9316C4.21484 34.0957 2.85742 31.9668 1.90039 29.5449C0.943359 27.123 0.464844 24.5449 0.464844 21.8105C0.464844 18.6465 1.00195 15.707 2.07617 12.9922C3.15039 10.2578 4.625 7.95312 6.5 6.07812C8.39453 4.18359 10.6504 2.69922 13.2676 1.625C15.9043 0.550781 18.7363 0.0136719 21.7637 0.0136719C24.9863 0.0136719 27.9355 0.550781 30.6113 1.625C33.2871 2.69922 35.5039 4.1543 37.2617 5.99023C39.0195 7.82617 40.377 9.95508 41.334 12.377C42.291 14.7793 42.7695 17.3379 42.7695 20.0527C42.7695 23.2168 42.2324 26.1562 41.1582 28.8711C40.084 31.5859 38.5996 33.9004 36.7051 35.8145C34.8301 37.709 32.5742 39.2031 29.9375 40.2969C27.3203 41.3711 24.498 41.9082 21.4707 41.9082ZM22.7305 40.209C25.0352 40.209 27.0566 39.457 28.7949 37.9531C30.5332 36.4297 31.8516 34.3398 32.75 31.6836C33.668 29.0078 34.127 25.9512 34.127 22.5137C34.1465 18.7832 33.5996 15.3457 32.4863 12.2012C31.3926 9.05664 29.791 6.52734 27.6816 4.61328C25.5918 2.69922 23.1992 1.73242 20.5039 1.71289C17.0273 1.69336 14.2441 3.32422 12.1543 6.60547C10.084 9.88672 9.04883 14.1738 9.04883 19.4668C9.0293 23.1582 9.58594 26.5762 10.7188 29.7207C11.8711 32.8652 13.502 35.3945 15.6113 37.3086C17.7402 39.2227 20.1133 40.1895 22.7305 40.209Z" fill="#C12D1E"/>
</svg>
