<svg width="54" height="41" viewBox="0 0 54 41" fill="none" xmlns="http://www.w3.org/2000/svg">
<path d="M53.5723 0.921875V1.77148C51.502 1.88867 50.0859 2.2793 49.3242 2.94336C48.5625 3.58789 48.1816 4.73047 48.1816 6.37109V36.2539C48.1816 37.4062 48.5723 38.2852 49.3535 38.8906C50.1543 39.4766 51.5605 39.8965 53.5723 40.1504V41H34.6758V40.1504C36.6484 39.916 38.0254 39.4961 38.8066 38.8906C39.6074 38.2852 40.0078 37.4062 40.0078 36.2539V9.38867L24.6562 40.9414H22.7812L7.48828 8.48047V36.2539C7.48828 37.3867 7.88867 38.2559 8.68945 38.8613C9.50977 39.4668 10.9355 39.8965 12.9668 40.1504V41H0.486328V40.1504C2.45898 39.916 3.83594 39.5059 4.61719 38.9199C5.41797 38.3145 5.81836 37.4258 5.81836 36.2539V6.37109C5.81836 4.73047 5.4375 3.58789 4.67578 2.94336C3.91406 2.2793 2.49805 1.88867 0.427734 1.77148V0.921875H12.9668L27.3516 31.5078L42.1758 0.921875H53.5723Z" fill="#C12D1E"/>
</svg>
