<svg width="87" height="87" viewBox="0 0 87 87" fill="none" xmlns="http://www.w3.org/2000/svg">
<rect width="87" height="87" rx="5" fill="black"/>
<path d="M71.5723 22.9219V23.7715C69.502 23.8887 68.0859 24.2793 67.3242 24.9434C66.5625 25.5879 66.1816 26.7305 66.1816 28.3711V58.2539C66.1816 59.4062 66.5723 60.2852 67.3535 60.8906C68.1543 61.4766 69.5605 61.8965 71.5723 62.1504V63H52.6758V62.1504C54.6484 61.916 56.0254 61.4961 56.8066 60.8906C57.6074 60.2852 58.0078 59.4062 58.0078 58.2539V31.3887L42.6562 62.9414H40.7812L25.4883 30.4805V58.2539C25.4883 59.3867 25.8887 60.2559 26.6895 60.8613C27.5098 61.4668 28.9355 61.8965 30.9668 62.1504V63H18.4863V62.1504C20.459 61.916 21.8359 61.5059 22.6172 60.9199C23.418 60.3145 23.8184 59.4258 23.8184 58.2539V28.3711C23.8184 26.7305 23.4375 25.5879 22.6758 24.9434C21.9141 24.2793 20.498 23.8887 18.4277 23.7715V22.9219H30.9668L45.3516 53.5078L60.1758 22.9219H71.5723Z" fill="white"/>
</svg>
