<svg width="87" height="87" viewBox="0 0 87 87" fill="none" xmlns="http://www.w3.org/2000/svg">
<rect width="87" height="87" rx="5" fill="black"/>
<path d="M43.5004 17.4004C38.3383 17.4004 33.2921 18.9311 29 21.799C24.7079 24.6669 21.3626 28.7432 19.3871 33.5124C17.4117 38.2815 16.8948 43.5293 17.9019 48.5922C18.909 53.6551 21.3948 58.3057 25.0449 61.9559C28.6951 65.606 33.3456 68.0918 38.4085 69.0989C43.4714 70.1059 48.7193 69.5891 53.4884 67.6136C58.2576 65.6382 62.3338 62.2929 65.2017 58.0008C68.0697 53.7086 69.6004 48.6625 69.6004 43.5004C69.5928 36.5806 66.8405 29.9463 61.9475 25.0533C57.0544 20.1602 50.4202 17.408 43.5004 17.4004ZM44.5444 19.5119C46.6727 19.6026 48.7794 19.9774 50.8084 20.6264V66.3744C48.7794 67.0234 46.6727 67.3982 44.5444 67.4889V19.5119ZM52.8964 21.4041C55.1734 22.379 57.2863 23.6996 59.1604 25.3191V61.6895C57.2863 63.309 55.1734 64.6296 52.8964 65.6045V21.4041ZM19.4884 43.5004C19.4957 37.315 21.8867 31.3704 26.1644 26.9027C30.4421 22.4349 36.2772 19.7879 42.4564 19.5119V67.4889C36.2772 67.2129 30.4421 64.5658 26.1644 60.0981C21.8867 55.6304 19.4957 49.6858 19.4884 43.5004ZM61.2484 59.6563V27.3445C65.278 31.7602 67.512 37.5224 67.512 43.5004C67.512 49.4784 65.278 55.2406 61.2484 59.6563Z" fill="#F8F8F8"/>
</svg>
