<svg width="56" height="56" viewBox="0 0 56 56" fill="none" xmlns="http://www.w3.org/2000/svg">
<path d="M28 0C22.4621 0 17.0486 1.64217 12.444 4.71885C7.83947 7.79553 4.25064 12.1685 2.13138 17.2849C0.0121315 22.4012 -0.542361 28.0311 0.538025 33.4625C1.61841 38.894 4.28515 43.8831 8.20102 47.799C12.1169 51.7148 17.106 54.3816 22.5375 55.462C27.9689 56.5424 33.5988 55.9879 38.7151 53.8686C43.8315 51.7494 48.2045 48.1605 51.2812 43.556C54.3578 38.9514 56 33.5379 56 28C55.9918 20.5764 53.0392 13.4593 47.79 8.21001C42.5407 2.96076 35.4236 0.00815247 28 0ZM29.12 2.2652C31.4033 2.3625 33.6633 2.76459 35.84 3.4608V52.5392C33.6633 53.2354 31.4033 53.6375 29.12 53.7348V2.2652ZM38.08 4.2952C40.5228 5.34105 42.7895 6.75773 44.8 8.4952V47.5132C42.7895 49.2507 40.5228 50.6673 38.08 51.7132V4.2952ZM2.24001 28C2.24781 21.3643 4.81293 14.987 9.402 10.194C13.9911 5.40105 20.2509 2.56128 26.88 2.2652V53.7348C20.2509 53.4387 13.9911 50.5989 9.402 45.806C4.81293 41.013 2.24781 34.6357 2.24001 28ZM47.04 45.332V10.668C51.3629 15.4052 53.7595 21.5868 53.7595 28C53.7595 34.4131 51.3629 40.5948 47.04 45.332Z" fill="url(#paint0_linear_1206_1211)"/>
<defs>
<linearGradient id="paint0_linear_1206_1211" x1="10.5" y1="-4.56698e-07" x2="40.2299" y2="55.7854" gradientUnits="userSpaceOnUse">
<stop stop-color="#EA5E3C"/>
<stop offset="1" stop-color="#BE3940"/>
</linearGradient>
</defs>
</svg>
