<svg width="87" height="87" viewBox="0 0 87 87" fill="none" xmlns="http://www.w3.org/2000/svg">
<rect width="87" height="87" rx="5" fill="black"/>
<path d="M43 16C37.4621 16 32.0486 17.6422 27.444 20.7188C22.8395 23.7955 19.2506 28.1685 17.1314 33.2849C15.0121 38.4012 14.4576 44.0311 15.538 49.4625C16.6184 54.894 19.2852 59.8831 23.201 63.799C27.1169 67.7148 32.106 70.3816 37.5375 71.462C42.9689 72.5424 48.5988 71.9879 53.7151 69.8686C58.8315 67.7494 63.2045 64.1605 66.2812 59.556C69.3578 54.9514 71 49.5379 71 44C70.9918 36.5764 68.0392 29.4593 62.79 24.21C57.5407 18.9608 50.4236 16.0082 43 16ZM44.12 18.2652C46.4033 18.3625 48.6633 18.7646 50.84 19.4608V68.5392C48.6633 69.2354 46.4033 69.6375 44.12 69.7348V18.2652ZM53.08 20.2952C55.5228 21.341 57.7895 22.7577 59.8 24.4952V63.5132C57.7895 65.2507 55.5228 66.6673 53.08 67.7132V20.2952ZM17.24 44C17.2478 37.3643 19.8129 30.987 24.402 26.194C28.9911 21.401 35.2509 18.5613 41.88 18.2652V69.7348C35.2509 69.4387 28.9911 66.5989 24.402 61.806C19.8129 57.013 17.2478 50.6357 17.24 44ZM62.04 61.332V26.668C66.3629 31.4052 68.7595 37.5868 68.7595 44C68.7595 50.4131 66.3629 56.5948 62.04 61.332Z" fill="url(#paint0_linear_1206_1201)"/>
<defs>
<linearGradient id="paint0_linear_1206_1201" x1="33.2375" y1="16" x2="55.2299" y2="71.7854" gradientUnits="userSpaceOnUse">
<stop stop-color="#E37851"/>
<stop offset="1" stop-color="#C84337"/>
</linearGradient>
</defs>
</svg>
