<svg width="19" height="25" viewBox="0 0 19 25" fill="none" xmlns="http://www.w3.org/2000/svg">
<path d="M18.2032 11.5078C18.1794 11.406 18.1309 11.3117 18.062 11.2332C17.993 11.1547 17.9058 11.0944 17.808 11.0576L11.5338 8.70488L13.1228 0.760169C13.1499 0.624572 13.132 0.483833 13.0719 0.359301C13.0118 0.234768 12.9127 0.133236 12.7897 0.0701048C12.6667 0.00697361 12.5264 -0.0143122 12.3902 0.00947603C12.254 0.0332643 12.1292 0.100829 12.0349 0.201921L0.170786 12.9135C0.0995345 12.9898 0.0482113 13.0826 0.021358 13.1836C-0.00549531 13.2845 -0.00705109 13.3905 0.0168286 13.4922C0.0407083 13.5939 0.0892872 13.6882 0.158266 13.7666C0.227246 13.8451 0.314499 13.9053 0.412305 13.942L6.68651 16.2947L5.09756 24.2394C5.07028 24.3751 5.088 24.5159 5.14803 24.6405C5.20806 24.7652 5.30712 24.8669 5.43018 24.9301C5.52011 24.9758 5.61953 24.9998 5.72043 25C5.80768 25 5.89399 24.982 5.974 24.9472C6.054 24.9124 6.12598 24.8615 6.18546 24.7977L18.0496 12.0861C18.1207 12.0098 18.1719 11.917 18.1987 11.8162C18.2255 11.7153 18.227 11.6094 18.2032 11.5078ZM6.77972 22.2946L8.03499 16.0151C8.06476 15.8671 8.04094 15.7134 7.96777 15.5815C7.8946 15.4495 7.77687 15.3479 7.63563 15.2947L1.74596 13.0861L11.4343 2.70503L10.1822 8.98559C10.1524 9.13352 10.1762 9.28722 10.2494 9.41919C10.3226 9.55116 10.4403 9.65279 10.5815 9.70591L16.4712 11.9145L6.77972 22.2946Z" fill="white"/>
</svg>
